<?xml version="1.0" encoding="UTF-8" standalone="no"?><!DOCTYPE svg PUBLIC "-//W3C//DTD SVG 1.1//EN" "http://www.w3.org/Graphics/SVG/1.1/DTD/svg11.dtd"><svg width="100%" height="100%" viewBox="0 0 1280 800" version="1.1" xmlns="http://www.w3.org/2000/svg" xmlns:xlink="http://www.w3.org/1999/xlink" xml:space="preserve" xmlns:serif="http://www.serif.com/" style="fill-rule:evenodd;clip-rule:evenodd;stroke-linejoin:round;stroke-miterlimit:1.41421;"><path d="M335.373,219.474c0,0 289.1,-159.873 378.101,-209.09c5.377,-2.974 11.926,-2.883 17.219,0.238c5.293,3.122 8.542,8.809 8.542,14.954c0,126.403 0,622.445 0,748.848c0,6.145 -3.249,11.832 -8.542,14.954c-5.293,3.121 -11.842,3.212 -17.219,0.238c-89.001,-49.217 -378.101,-209.09 -378.101,-209.09c0,0 -69.784,0 -149.247,0c-26.42,0 -47.838,-21.417 -47.838,-47.838c0,-69.134 0,-196.242 0,-265.376c0,-26.421 21.418,-47.838 47.838,-47.838c79.463,0 149.247,0 149.247,0Z"/><path d="M784.468,223.512c97.184,0.001 176.487,79.305 176.487,176.488c0,97.183 -79.303,176.487 -176.487,176.488l0,-88.85c48.592,-0.001 87.638,-39.047 87.638,-87.638c0,-48.591 -39.046,-87.637 -87.638,-87.638l0,-88.85Z"/><path d="M784.468,60.756c187.234,0 339.244,152.01 339.244,339.244c0,187.234 -152.01,339.244 -339.244,339.244l0,-80.701c142.693,0 258.542,-115.849 258.542,-258.543c0,-142.694 -115.849,-258.543 -258.542,-258.543l0,-80.701Z"/></svg>